<svg width="260" height="268" viewBox="0 0 260 268" fill="none" xmlns="http://www.w3.org/2000/svg">
<g filter="url(#filter0_di_25_57)">
<path d="M86.64 85.16H68.16V107.72C68.04 108.32 63.12 110.96 54.48 110.96H51.36V85.16H33.48L32.52 81.8H51.36V67.64H35.76L34.8 64.28H61.8C63.48 57.92 65.04 49.04 65.88 42.92L84.24 47.96C83.76 49.4 82.32 50.36 79.68 50.24C76.08 54.2 70.68 59.72 65.52 64.28H71.52L77.88 56.72C77.88 56.72 85.08 61.88 89.64 65.72C89.28 67.04 88.08 67.64 86.4 67.64H68.16V81.8H69.84L76.92 73.04C76.92 73.04 84.96 79.04 89.88 83.24C89.52 84.56 88.32 85.16 86.64 85.16ZM37.56 44.36L38.52 43.76C69.48 48.56 54.6 71.6 42.6 61.16C42.72 55.16 40.32 48.56 37.56 44.36ZM112.68 22.64H69.12V38.6H89.52L97.32 29.96L113.16 42.2C112.44 43.16 111 44.24 108.48 44.72V97.04C108.48 108.08 105.72 114.2 86.76 115.88C86.4 110.36 85.8 106.52 83.76 104C81.72 101.6 79.32 99.56 72.84 98.48V96.92C72.84 96.92 84.96 97.76 88.32 97.76C90.24 97.76 90.72 96.8 90.72 95.36V41.96H31.08V109.4C31.08 111.32 23.52 115.4 16.2 115.4H13.44V31.28L32.28 38.6H51.48V22.64H4.92L3.96 19.28H51.48V1.27999L73.44 2.95999C73.2 4.63999 72.48 5.84 69.12 6.44V19.28H89.52L99 7.39999C99 7.39999 109.68 15.32 116.28 20.72C115.92 22.04 114.48 22.64 112.68 22.64ZM250.44 17.24H219.6L218.64 13.88H232.32L240 3.31999C240 3.31999 248.76 10.52 253.8 15.32C253.44 16.64 252.24 17.24 250.44 17.24ZM163.56 50L172.68 53.36C172.2 54.44 171.24 55.28 168.96 55.64V109.76C168.84 111.2 162.48 115.4 155.28 115.4H152.16V61.28C148.32 64.64 144.36 67.88 140.28 70.76L139.2 69.8C147 56.96 155.16 38 158.76 26.12C153.36 29.96 147.36 33.56 141.24 36.44L140.16 35.36C148.08 25.52 156 10.52 159.36 1.15999L178.2 12.32C177.6 13.52 176.52 14.24 173.52 13.88C169.92 17.48 165.24 21.44 160.08 25.16L179.16 35.48C178.56 36.68 177.48 37.52 174.48 37.28C171.48 41.12 167.76 45.56 163.56 50ZM225.36 81.8L225.6 83C216.96 88.28 203.88 95.24 183.24 104.6C182.52 106.16 181.2 107.24 179.76 107.6L170.4 89.36C174.24 89 180.36 88.28 187.68 87.2V71.6H174.36L173.4 68.24H187.68V50.36L208.56 51.92C208.32 53.6 207.48 54.8 204.12 55.28V68.24H205.08L212.16 58.52C212.16 58.52 220.2 65.12 224.88 69.68C224.52 71 223.32 71.6 221.64 71.6H204.12V85.04C210.84 83.96 218.04 82.88 225.36 81.8ZM233.76 41.12L241.8 29.96C241.8 29.96 250.92 37.52 256.32 42.56C255.96 43.88 254.64 44.48 252.96 44.48H246.36V95.24C246.36 106.28 243.36 113.96 224.64 115.28C224.28 109.76 223.44 105.68 221.16 103.16C219 100.64 216.24 98.72 208.8 97.52V96.08C208.8 96.08 223.68 96.92 226.8 96.92C228.72 96.92 229.32 96.08 229.32 94.76V44.48H223.08C224.16 45.56 225.36 46.52 226.32 47.48C225.96 48.8 224.76 49.4 223.08 49.4H171.6L170.64 46.04H187.8V26.96H174L173.04 23.6H187.8V4.03999L208.08 5.71999C207.84 7.27999 207.12 8.35999 204.24 8.83999V23.6H205.32L212.16 14.24C212.16 14.24 219.96 20.6 224.52 25.04C224.16 26.36 222.96 26.96 221.28 26.96H204.24V46.04H206.28L213.48 36.2C213.48 36.2 216.12 38.36 219.24 41.12H233.76ZM39 174.44H25.56V185.6H39V174.44ZM25.56 200.72H39V188.96H25.56V195.92V200.72ZM46.56 208.4L60.12 219.56C59.16 220.52 57.84 221.24 55.44 221.6C54.6 242.36 52.68 250.64 47.04 254.6C43.56 257 39.12 258.2 32.52 258.2C32.52 253.88 32.16 250.16 30.48 248.12C28.8 245.96 26.04 244.4 21.84 243.44V242C25.2 242.24 30.96 242.48 33.12 242.48C34.8 242.48 35.64 242.36 36.36 241.64C38.16 240.08 39.24 233 39.84 219.08H24.48C22.56 233.6 17.52 248.36 4.08 259.64L2.76 258.44C10.08 239.96 9.96 216.44 9.96 195.44V154.4L24.12 158.84C31.92 154.76 40.32 149.24 44.76 145.28L60 159.56C58.44 160.76 55.68 160.88 51.96 159.44C45.24 160.88 35.16 161.96 25.56 162.44V171.08H37.8L44.76 163.76L58.92 174.32C58.2 175.16 56.88 176.12 54.6 176.6V203.72C54.48 204.8 47.04 207.92 41.76 207.92H39V204.08H25.44C25.44 207.92 25.2 211.76 24.84 215.72H38.76L46.56 208.4ZM89.88 204.68H67.32C70.44 213.92 75.6 220.88 81.84 226.4C85.56 219.68 88.2 212.48 89.88 204.68ZM99.96 194.48L112.44 205.28C111.72 206.6 110.52 207.08 107.76 207.44C104.52 217.4 99.84 226.4 93.24 234.08C100.92 238.16 109.44 240.92 118.2 243.08L118.08 244.52C111 246.08 105.96 251.36 103.68 259.52C95.28 255.2 88.2 250.4 82.44 244.04C73.32 250.88 61.56 256.16 46.68 259.4L45.96 257.96C58.92 252.44 68.76 244.76 75.96 235.4C71.04 227.48 67.56 217.52 65.28 204.68H58.56L57.48 201.32H90.6V201.2H89.16L95.88 194.48C87.48 194.12 86.88 190.88 86.88 182.12V158.84H78.12V167.36C78.12 176.96 75.84 191.72 57 199.88L56.28 198.8C62.76 189.44 62.88 177.2 62.88 167.36V149.36L80.4 155.48H85.56L93 147.44L106.44 158.12C105.72 158.96 104.16 159.56 102.12 159.92V178.04C102.12 179.36 102.36 179.84 103.32 179.84H104.28H105.6C106.2 179.84 107.64 179.72 108.36 179.72C109.08 179.6 110.4 179.36 111.24 179.12H112.32L112.92 179.36C116.16 181.16 117.12 182.6 117.12 185.48C117.12 191.24 112.2 194.48 102 194.48H99.96ZM160.2 219.8H170.04V201.32H160.2V219.8ZM170.04 179.72H160.2V197.96H170.04V179.72ZM170.04 158.36H160.2V176.36H170.04V158.36ZM169.44 155L176.76 146.6L190.08 157.16C189.24 158.24 187.92 159.2 185.16 159.68V222.8C185.16 223.64 180.24 226.76 172.56 226.76H170.04V223.16H160.2V226.16C160.2 226.76 158.64 227.96 155.88 228.8L168.48 235.16C167.76 233 166.92 231.08 165.96 229.4L167.04 228.8C196.68 236.36 181.68 258.44 170.4 247.76C170.64 244.52 170.04 240.92 169.2 237.68C168.48 237.92 167.52 238.04 166.2 237.92C160.32 245.6 151.2 253.88 140.28 258.8L139.32 257.6C145.44 250.04 150.12 238.4 152.4 229.64C151.2 229.76 149.88 229.88 148.44 229.88H145.8V149L161.64 155H169.44ZM238.68 201.68L255.6 212.96C255 213.92 253.32 214.76 250.92 213.92C247.68 215.96 241.56 219.2 235.92 221.96C240.84 231.44 247.8 237.56 255.6 242.72L255.36 244.04C248.88 245.12 243.6 250.04 240.84 257.84C230.88 244.04 228.24 229.52 227.28 199.88H222.6V240.56C225.36 240.08 228.12 239.48 230.88 239L231.12 240.2C228.24 243.44 221.76 249.44 214.32 255.68C213.24 257.48 211.8 258.68 210.48 259.4L201.84 242.96C207 240.32 207.84 239 207.84 236.36V199.88H205.92C204.96 220.16 200.52 243.8 181.32 260.12L180.12 259.28C189.72 237.32 190.08 209.6 190.08 186.32V150.44L208.56 156.8H232.2L240 146.24C240 146.24 248.88 153.44 254.16 158.24C253.8 159.56 252.48 160.16 250.8 160.16H206.16V176.36H228.72L235.92 166.4C235.92 166.4 244.2 173.24 249 177.8C248.64 179.12 247.44 179.72 245.76 179.72H206.16V186.2C206.16 189.44 206.16 192.92 206.04 196.52H233.76L241.44 186.08C241.44 186.08 250.2 193.16 255.36 197.96C255 199.28 253.68 199.88 252 199.88H229.08C230.16 206.72 231.72 212.6 233.88 217.64C235.8 211.88 237.84 205.28 238.68 201.68Z" fill="#101010"/>
</g>
<defs>
<filter id="filter0_di_25_57" x="-2.23999" y="-0.840012" width="261.56" height="267.96" filterUnits="userSpaceOnUse" color-interpolation-filters="sRGB">
<feFlood flood-opacity="0" result="BackgroundImageFix"/>
<feColorMatrix in="SourceAlpha" type="matrix" values="0 0 0 0 0 0 0 0 0 0 0 0 0 0 0 0 0 0 127 0" result="hardAlpha"/>
<feOffset dx="-1" dy="3"/>
<feGaussianBlur stdDeviation="2"/>
<feComposite in2="hardAlpha" operator="out"/>
<feColorMatrix type="matrix" values="0 0 0 0 1 0 0 0 0 1 0 0 0 0 1 0 0 0 0.25 0"/>
<feBlend mode="normal" in2="BackgroundImageFix" result="effect1_dropShadow_25_57"/>
<feBlend mode="normal" in="SourceGraphic" in2="effect1_dropShadow_25_57" result="shape"/>
<feColorMatrix in="SourceAlpha" type="matrix" values="0 0 0 0 0 0 0 0 0 0 0 0 0 0 0 0 0 0 127 0" result="hardAlpha"/>
<feOffset dx="3" dy="-2"/>
<feGaussianBlur stdDeviation="2"/>
<feComposite in2="hardAlpha" operator="arithmetic" k2="-1" k3="1"/>
<feColorMatrix type="matrix" values="0 0 0 0 0.525 0 0 0 0 0.525 0 0 0 0 0.525 0 0 0 0.25 0"/>
<feBlend mode="normal" in2="shape" result="effect2_innerShadow_25_57"/>
</filter>
</defs>
</svg>
