<svg width="261" height="263" viewBox="0 0 261 263" fill="none" xmlns="http://www.w3.org/2000/svg">
<g filter="url(#filter0_di_25_57)">
<path d="M35.88 108.48C35 108.8 34.36 108.56 33.96 107.76C33.32 106.64 32.48 105.04 31.44 102.96C30.48 100.88 29.56 98.8 28.68 96.72C27.88 94.64 27.28 93.08 26.88 92.04C26.8 91.56 26.8 91.2 26.88 90.96C26.96 90.8 27.28 90.64 27.84 90.48C28.4 90.48 28.96 90.48 29.52 90.48C30.08 90.4 30.68 90.32 31.32 90.24C33.96 90.08 37 89.92 40.44 89.76C43.88 89.52 47.4 89.32 51 89.16V71.16H44.4V76.2C44.4 77.4 43.4 78.36 41.4 79.08C39.48 79.8 37.32 80.16 34.92 80.16C33.08 80.16 32.16 79.28 32.16 77.52C32.16 77.04 32.2 75.88 32.28 74.04C32.36 72.12 32.44 69.88 32.52 67.32C32.6 64.68 32.68 62 32.76 59.28C32.84 56.48 32.88 53.92 32.88 51.6C32.88 47.12 32.8 43.92 32.64 42C32.56 40.08 32.36 38.64 32.04 37.68C31.88 37.2 31.92 36.88 32.16 36.72C32.4 36.48 32.76 36.44 33.24 36.6C34.84 36.92 36.84 37.56 39.24 38.52C41.64 39.4 43.68 40.28 45.36 41.16H51V30.24C47.16 30.56 43.44 30.8 39.84 30.96C36.24 31.12 32.92 31.24 29.88 31.32C29 30.44 28.96 29.6 29.76 28.8C33.2 28.24 37 27.44 41.16 26.4C45.32 25.28 49.36 23.92 53.28 22.32C57.28 20.72 60.68 18.96 63.48 17.04C63.88 16.72 64.28 16.44 64.68 16.2C65.16 15.88 65.56 15.56 65.88 15.24C66.2 14.92 66.52 14.76 66.84 14.76C67.16 14.68 67.52 14.76 67.92 15C69.04 15.48 70.56 16.32 72.48 17.52C74.4 18.64 76.32 19.84 78.24 21.12C80.24 22.4 81.84 23.52 83.04 24.48C83.76 25.04 83.88 25.8 83.4 26.76C83.24 27 83 27.2 82.68 27.36C82.36 27.52 82 27.56 81.6 27.48C80.32 27.08 79.2 26.88 78.24 26.88C77.36 26.88 76.24 27.04 74.88 27.36C73.04 27.68 71.04 28 68.88 28.32C66.8 28.64 64.6 28.96 62.28 29.28V41.16H67.32C67.96 41.16 68.44 40.88 68.76 40.32C68.92 40 69.16 39.6 69.48 39.12C69.8 38.56 70.12 38 70.44 37.44C70.92 36.8 71.56 36.6 72.36 36.84C74.04 37.32 75.96 38.04 78.12 39C80.36 39.96 82.2 40.88 83.64 41.76C84.2 42.08 84.44 42.6 84.36 43.32C84.36 43.96 84.04 44.48 83.4 44.88C83.16 45.04 82.92 45.2 82.68 45.36C82.52 45.44 82.36 45.56 82.2 45.72C81.48 46.2 81 46.72 80.76 47.28C80.6 47.76 80.52 48.44 80.52 49.32C80.52 51.32 80.56 53.6 80.64 56.16C80.72 58.72 80.8 61.24 80.88 63.72C80.96 66.2 81.04 68.32 81.12 70.08C81.2 71.84 81.24 72.84 81.24 73.08C81.24 74.28 80.24 75.24 78.24 75.96C76.32 76.68 74.16 77.04 71.76 77.04C69.92 77.04 69 76.16 69 74.4V71.16H62.28V88.68L71.76 88.32C70.88 86.72 69.88 85.2 68.76 83.76C67.72 82.24 66.56 80.92 65.28 79.8C65.12 79.32 65.16 78.88 65.4 78.48C65.64 78 66 77.72 66.48 77.64C74.16 79.56 79.96 82.2 83.88 85.56C87.8 88.92 89.88 92.76 90.12 97.08C90.28 100.04 89.68 102.32 88.32 103.92C86.96 105.52 85.36 106.52 83.52 106.92C82 107.24 80.56 107 79.2 106.2C77.84 105.4 77 104.04 76.68 102.12C76.2 98.68 75.16 95.2 73.56 91.68C71.08 92.48 68.12 93.48 64.68 94.68C61.32 95.88 57.92 97.08 54.48 98.28C51.12 99.48 48.04 100.6 45.24 101.64C42.52 102.6 40.48 103.36 39.12 103.92C38.32 104.32 37.76 104.68 37.44 105C37.12 105.4 37 106 37.08 106.8C37.16 107.6 36.76 108.16 35.88 108.48ZM4.92 110.64C4.36 110.72 3.88 110.6 3.48 110.28C3.16 109.96 3.04 109.56 3.12 109.08C6.32 104.52 8.72 99.12 10.32 92.88C12 86.56 13.12 78.96 13.68 70.08C14.24 61.12 14.52 50.4 14.52 37.92C14.52 32.64 14.4 27.76 14.16 23.28C14 18.72 13.76 14.88 13.44 11.76C13.2 8.55999 12.88 6.39999 12.48 5.27999C12.32 4.64 12.4 4.24 12.72 4.07999C13.04 3.75999 13.48 3.71999 14.04 3.96C15.24 4.2 16.72 4.64 18.48 5.27999C20.24 5.91999 22.04 6.64 23.88 7.43999C25.72 8.15999 27.32 8.87999 28.68 9.6H84.48C85.2 9.6 85.72 9.32 86.04 8.76C86.28 8.35999 86.64 7.75999 87.12 6.95999C87.6 6.08 88.04 5.35999 88.44 4.79999C88.92 3.99999 89.6 3.75999 90.48 4.07999C91.68 4.4 93.16 4.96 94.92 5.75999C96.68 6.55999 98.44 7.43999 100.2 8.4C102.04 9.27999 103.52 10.08 104.64 10.8C105.36 11.28 105.68 12 105.6 12.96C105.52 13.92 105.04 14.56 104.16 14.88C103.36 15.12 102.76 15.4 102.36 15.72C100.84 16.52 99.96 18 99.72 20.16C99.32 23.92 99.04 28.16 98.88 32.88C98.72 37.6 98.68 42.44 98.76 47.4C98.92 52.36 99.2 57.2 99.6 61.92C100.08 66.64 100.72 70.92 101.52 74.76C102.32 78.52 103.28 81.56 104.4 83.88C105.68 86.68 107 86.8 108.36 84.24C108.84 83.36 109.52 82 110.4 80.16C111.28 78.32 112.16 76.48 113.04 74.64C113.92 72.72 114.6 71.28 115.08 70.32C116.12 69.84 116.92 70.08 117.48 71.04C117.32 71.68 117.04 72.88 116.64 74.64C116.24 76.32 115.8 78.16 115.32 80.16C114.84 82.16 114.4 83.96 114 85.56C113.68 87.16 113.48 88.16 113.4 88.56C113.08 90.4 112.96 92 113.04 93.36C113.12 94.64 113.6 95.92 114.48 97.2C115.76 98.96 116.56 100.8 116.88 102.72C117.2 104.64 116.64 106.32 115.2 107.76C113.84 109.04 112 109.56 109.68 109.32C107.44 109.08 105.04 107.76 102.48 105.36C99.52 102.48 96.8 98.68 94.32 93.96C91.92 89.16 90 82.88 88.56 75.12C87.12 67.36 86.4 57.64 86.4 45.96V13.32H27.48V43.92C27.48 53.52 26.96 61.84 25.92 68.88C24.88 75.92 23.36 81.96 21.36 87C19.44 92.04 17.08 96.48 14.28 100.32C11.56 104.08 8.44 107.52 4.92 110.64ZM62.28 67.56H69V44.76H62.28V67.56ZM44.4 67.56H51V44.76H44.4V67.56ZM176.76 110.64C175.64 110.08 175.4 109.32 176.04 108.36C179.64 106.84 183.12 104.96 186.48 102.72C189.92 100.48 193.04 98.08 195.84 95.52C198.64 92.88 200.92 90.28 202.68 87.72C202.84 87.56 202.96 87.4 203.04 87.24C203.12 87.08 203.2 86.96 203.28 86.88C202.8 86.96 202.32 87 201.84 87C201.44 87 201 87 200.52 87C198.68 87 197.76 86.12 197.76 84.36C197.76 83.96 197.84 82 198 78.48C198.16 74.96 198.28 70.4 198.36 64.8C198.52 59.12 198.6 52.92 198.6 46.2C198.6 39.72 198.52 34.64 198.36 30.96C198.28 27.28 198.12 24.88 197.88 23.76C197.72 23.2 197.8 22.84 198.12 22.68C198.36 22.44 198.72 22.36 199.2 22.44C200.56 22.76 202.48 23.36 204.96 24.24C207.44 25.12 209.64 25.96 211.56 26.76H212.16L212.76 13.8H200.28C198.52 13.8 196.8 13.84 195.12 13.92C193.52 13.92 192.28 13.96 191.4 14.04V62.64C191.4 68.24 191.44 73.52 191.52 78.48C191.6 83.36 191.64 87.4 191.64 90.6C191.72 93.72 191.76 95.52 191.76 96C191.76 97.04 190.76 97.88 188.76 98.52C186.76 99.16 184.68 99.48 182.52 99.48C180.84 99.48 180 98.72 180 97.2C180 96.72 180.04 94.8 180.12 91.44C180.2 88.08 180.28 83.84 180.36 78.72C180.44 73.6 180.48 68.24 180.48 62.64V13.44C180.48 11.68 180.4 10.28 180.24 9.23999C180.08 8.11999 179.88 7.31999 179.64 6.83999C179.4 6.28 179.4 5.88 179.64 5.64C179.88 5.32 180.2 5.16 180.6 5.16C181.48 5.16 182.76 5.28 184.44 5.52C186.2 5.68 187.96 5.88 189.72 6.12C191.48 6.35999 192.76 6.59999 193.56 6.83999C194.44 7.08 194.8 7.64 194.64 8.51999C194.56 9.31999 194.16 9.76 193.44 9.84C194.56 9.92 195.68 10 196.8 10.08C198 10.08 199.16 10.08 200.28 10.08H232.68C234.04 10.08 235 9.68 235.56 8.88C236.04 8.31999 236.8 7.36 237.84 6C238.88 4.64 239.56 3.68 239.88 3.11999C240.6 2.31999 241.48 2.15999 242.52 2.63999C243.4 2.95999 244.52 3.63999 245.88 4.67999C247.32 5.72 248.68 6.83999 249.96 8.03999C251.32 9.24 252.28 10.24 252.84 11.04C253.32 11.68 253.48 12.32 253.32 12.96C253.16 13.52 252.76 13.8 252.12 13.8H230.04L216.96 26.76H229.56C229.96 26.76 230.32 26.72 230.64 26.64C230.96 26.56 231.2 26.36 231.36 26.04C231.68 25.56 232 25.08 232.32 24.6C232.64 24.04 232.96 23.48 233.28 22.92C233.84 22.12 234.64 21.92 235.68 22.32C236.56 22.56 237.76 23 239.28 23.64C240.88 24.2 242.44 24.8 243.96 25.44C245.48 26.08 246.68 26.64 247.56 27.12C248.44 27.6 248.84 28.4 248.76 29.52C248.68 30.56 248.2 31.2 247.32 31.44C247.08 31.52 246.88 31.6 246.72 31.68C246.56 31.76 246.4 31.84 246.24 31.92C245.68 32.32 245.28 32.88 245.04 33.6C244.88 34.24 244.8 35.12 244.8 36.24C244.8 39.6 244.84 43.28 244.92 47.28C245 51.2 245.08 55.12 245.16 59.04C245.32 62.96 245.44 66.6 245.52 69.96C245.6 73.32 245.68 76.08 245.76 78.24C245.84 80.4 245.88 81.68 245.88 82.08C245.88 82.88 245.28 83.6 244.08 84.24C242.96 84.88 241.56 85.4 239.88 85.8C238.2 86.12 236.48 86.28 234.72 86.28C232.64 86.28 231.6 85.32 231.6 83.4V82.44H210.84V83.16C210.84 83.96 210.16 84.72 208.8 85.44C210.16 86 211.64 86.72 213.24 87.6C214.92 88.48 216.48 89.32 217.92 90.12C219.36 90.84 220.44 91.4 221.16 91.8C221.8 92.12 222.04 92.76 221.88 93.72C221.56 94.6 221.04 95 220.32 94.92C219.36 94.76 218.48 94.72 217.68 94.8C216.96 94.88 216.12 95.2 215.16 95.76C209.72 98.88 203.56 101.72 196.68 104.28C189.8 106.92 183.16 109.04 176.76 110.64ZM142.32 108.36C141.12 108.52 140.44 108 140.28 106.8C143.16 102.08 145.2 96.96 146.4 91.44C147.68 85.84 148.48 79.4 148.8 72.12C149.12 64.76 149.28 56.16 149.28 46.32C149.28 37.04 149.2 29.6 149.04 24C148.88 18.32 148.64 14.08 148.32 11.28C148.08 8.48 147.8 6.72 147.48 6C147.24 5.52 147.24 5.07999 147.48 4.67999C147.64 4.44 147.92 4.32 148.32 4.32C149.2 4.32 150.56 4.44 152.4 4.67999C154.32 4.92 156.2 5.16 158.04 5.39999C159.96 5.63999 161.32 5.88 162.12 6.12C163 6.35999 163.36 6.91999 163.2 7.8C163.12 8.6 162.64 9.07999 161.76 9.23999C160.56 9.32 159.96 9.92 159.96 11.04V45.72C159.96 54.52 159.64 62.04 159 68.28C158.44 74.44 157.44 79.84 156 84.48C154.64 89.04 152.84 93.2 150.6 96.96C148.36 100.72 145.6 104.52 142.32 108.36ZM166.92 94.08C165.4 94.08 164.64 93.36 164.64 91.92V19.44C164.64 17.68 164.56 16.28 164.4 15.24C164.24 14.2 164.08 13.44 163.92 12.96C163.68 12.56 163.64 12.16 163.8 11.76C163.96 11.44 164.28 11.28 164.76 11.28C165.64 11.28 166.92 11.36 168.6 11.52C170.36 11.68 172.08 11.88 173.76 12.12C175.52 12.36 176.8 12.6 177.6 12.84C178.48 13.08 178.84 13.64 178.68 14.52C178.6 15.32 178.12 15.8 177.24 15.96C176.04 16.04 175.44 16.68 175.44 17.88V90.96C175.44 91.92 174.48 92.68 172.56 93.24C170.72 93.8 168.84 94.08 166.92 94.08ZM248.76 109.56C247.24 110.52 245.64 110.88 243.96 110.64C242.36 110.4 241.04 109.4 240 107.64C238.56 105 236.76 102.36 234.6 99.72C232.52 97.08 230.24 94.64 227.76 92.4C225.28 90.16 222.76 88.36 220.2 87C219.8 85.8 220.12 85.04 221.16 84.72C224.04 84.96 227.08 85.44 230.28 86.16C233.48 86.88 236.52 87.8 239.4 88.92C242.36 90.04 244.92 91.32 247.08 92.76C249.24 94.2 250.72 95.76 251.52 97.44C252.88 100.16 253.16 102.6 252.36 104.76C251.56 106.92 250.36 108.52 248.76 109.56ZM210.84 78.84H231.6V64.68H210.84V78.84ZM210.84 61.08H231.6V47.52H210.84V61.08ZM210.84 43.92H231.6V30.36H210.84V43.92ZM48 254.64C48 251.28 47.8 248.72 47.4 246.96C47 245.28 46.16 243.96 44.88 243C43.6 242.04 41.6 241.16 38.88 240.36C38.48 239.24 38.8 238.52 39.84 238.2C41.76 238.52 43.88 238.84 46.2 239.16C48.6 239.4 50.8 239.52 52.8 239.52C55.68 239.52 57.72 238.2 58.92 235.56C60.12 232.92 60.72 229.4 60.72 225V224.28C52.96 230.84 44.48 235.96 35.28 239.64C26.16 243.32 16.6 246.32 6.6 248.64C6.12 248.32 5.8 247.92 5.64 247.44C5.56 246.96 5.68 246.56 6 246.24C10.64 244.64 15.4 242.44 20.28 239.64C25.16 236.84 29.96 233.68 34.68 230.16C39.4 226.64 43.76 222.92 47.76 219C51.84 215.08 55.32 211.16 58.2 207.24L57.84 206.16C53.04 210.24 47.76 213.84 42 216.96C36.24 220.08 30.32 222.8 24.24 225.12C18.24 227.36 12.36 229.2 6.6 230.64C5.56 230.08 5.32 229.32 5.88 228.36C10.84 226.2 15.96 223.36 21.24 219.84C26.52 216.32 31.6 212.4 36.48 208.08C41.36 203.68 45.68 199.2 49.44 194.64L48.48 193.92C42.4 197.52 36.08 200.48 29.52 202.8C22.96 205.12 16.32 206.92 9.6 208.2C8.64 207.56 8.44 206.76 9 205.8C16.2 203.08 22.76 199.64 28.68 195.48C34.6 191.24 39.72 186.8 44.04 182.16H37.8C37.8 182.16 37.12 182.16 35.76 182.16C34.48 182.16 32.84 182.2 30.84 182.28C28.84 182.36 26.8 182.52 24.72 182.76L23.28 177.6C27.28 178.08 30.68 178.36 33.48 178.44C36.36 178.52 37.8 178.56 37.8 178.56H72.6C73.96 178.56 74.92 178.16 75.48 177.36C75.96 176.64 76.72 175.48 77.76 173.88C78.8 172.28 79.56 171.2 80.04 170.64C80.76 169.6 81.72 169.44 82.92 170.16C83.72 170.56 84.64 171.16 85.68 171.96C86.72 172.68 87.76 173.48 88.8 174.36C89.2 172.84 89.72 171.04 90.36 168.96C91 166.88 91.48 165.4 91.8 164.52H24.72C25.12 169.4 24.32 173.52 22.32 176.88C20.32 180.24 17.4 181.92 13.56 181.92C11.24 181.92 9.44 181.36 8.16 180.24C6.88 179.12 6.08 177.76 5.76 176.16C5.44 174.48 5.56 172.88 6.12 171.36C6.76 169.84 7.76 168.68 9.12 167.88C12.4 166.04 14.84 164.04 16.44 161.88C18.04 159.72 18.96 156.84 19.2 153.24C19.52 152.76 19.92 152.48 20.4 152.4C20.88 152.32 21.28 152.44 21.6 152.76C22.24 154.12 22.76 155.48 23.16 156.84C23.64 158.2 24 159.56 24.24 160.92H51.12V155.64C51.12 153.88 51.08 152.4 51 151.2C50.92 150 50.68 149 50.28 148.2C50.04 147.72 50 147.24 50.16 146.76C50.4 146.28 50.84 146.04 51.48 146.04C52.36 146.04 53.6 146.12 55.2 146.28C56.88 146.44 58.64 146.64 60.48 146.88C62.4 147.04 64.16 147.24 65.76 147.48C67.44 147.72 68.68 147.92 69.48 148.08C70.6 148.4 71.08 149.12 70.92 150.24C70.84 151.36 70.2 152 69 152.16C67.4 152.4 66.6 153.24 66.6 154.68V160.92H91.2C92.24 160.92 92.92 160.56 93.24 159.84C93.64 159.28 94.08 158.52 94.56 157.56C95.12 156.6 95.52 155.84 95.76 155.28C96.48 154 97.56 153.8 99 154.68C100.2 155.48 101.68 156.56 103.44 157.92C105.28 159.2 107.08 160.52 108.84 161.88C110.6 163.16 112 164.28 113.04 165.24C114.08 166.2 114.32 167.32 113.76 168.6C113.2 169.72 112.32 170.28 111.12 170.28C110.48 170.28 109.84 170.28 109.2 170.28C108.56 170.28 107.92 170.32 107.28 170.4C104.24 170.56 101.32 171.28 98.52 172.56C95.8 173.76 93.44 175.16 91.44 176.76C91.92 177.24 92.36 177.68 92.76 178.08C93.16 178.48 93.48 178.84 93.72 179.16C94.36 179.8 94.56 180.48 94.32 181.2C94.08 181.84 93.64 182.16 93 182.16H71.4C71.56 186.8 72.28 191.08 73.56 195C74.92 198.84 76.68 202.36 78.84 205.56C80.76 203.4 82.84 200.6 85.08 197.16C87.32 193.64 89.12 190.36 90.48 187.32C90.72 186.84 90.92 186.36 91.08 185.88C91.32 185.4 91.52 184.92 91.68 184.44C91.76 184.12 91.96 183.88 92.28 183.72C92.68 183.56 93.04 183.56 93.36 183.72C94.4 184.2 95.96 185 98.04 186.12C100.12 187.16 102.2 188.28 104.28 189.48C106.36 190.68 107.92 191.64 108.96 192.36C109.6 192.76 109.76 193.44 109.44 194.4C109.28 194.72 109.04 195 108.72 195.24C108.48 195.48 108.16 195.56 107.76 195.48C106.56 195.24 105.64 195.2 105 195.36C104.36 195.44 103.44 195.88 102.24 196.68C99.04 198.84 95.44 200.92 91.44 202.92C87.52 204.92 83.92 206.64 80.64 208.08C83.68 211.84 87.16 215.12 91.08 217.92C95 220.72 99.16 223.12 103.56 225.12C107.96 227.04 112.32 228.68 116.64 230.04C114.16 231.08 111.76 232.6 109.44 234.6C107.2 236.52 105.2 238.56 103.44 240.72C101.76 242.88 100.52 244.84 99.72 246.6C95.8 243.88 91.96 240.52 88.2 236.52C84.44 232.44 81.04 227.72 78 222.36C75.04 216.92 72.68 210.88 70.92 204.24C69.16 197.52 68.28 190.16 68.28 182.16H64.56C62.56 184 60.44 185.76 58.2 187.44C56.04 189.04 53.84 190.56 51.6 192C55.84 194.64 59.6 197.92 62.88 201.84C66.24 205.68 68.88 209.8 70.8 214.2C72.72 218.6 73.68 223.04 73.68 227.52C73.68 236.72 71.44 243.52 66.96 247.92C62.56 252.4 56.24 254.64 48 254.64ZM141.84 225L140.4 220.32C143.6 220.64 146.28 220.84 148.44 220.92C150.68 220.92 151.8 220.92 151.8 220.92H152.28L150.84 167.64C150.76 165.08 150.56 162.68 150.24 160.44C150 158.2 149.68 156.64 149.28 155.76C149.12 155.28 149.16 154.92 149.4 154.68C149.56 154.44 149.92 154.32 150.48 154.32C151.28 154.48 152.44 154.84 153.96 155.4C155.48 155.96 157.08 156.56 158.76 157.2C160.44 157.76 161.84 158.28 162.96 158.76C163.44 157.64 163.92 156.4 164.4 155.04C164.96 153.6 165.4 152.36 165.72 151.32C165.8 150.92 165.88 150.6 165.96 150.36C166.04 150.04 166.12 149.76 166.2 149.52C166.28 148.96 166.56 148.68 167.04 148.68C167.28 148.6 167.6 148.68 168 148.92C168.64 149.16 169.56 149.68 170.76 150.48C172.04 151.2 173.4 152 174.84 152.88C174.76 151.6 174.64 150.56 174.48 149.76C174.32 148.88 174.12 148.24 173.88 147.84C173.8 147.6 173.84 147.32 174 147C174.32 146.84 174.64 146.8 174.96 146.88C175.68 147.04 176.84 147.44 178.44 148.08C180.04 148.64 181.68 149.28 183.36 150C185.12 150.72 186.44 151.32 187.32 151.8H207.96C208.6 151.8 209.16 151.52 209.64 150.96C210.12 150 210.68 148.96 211.32 147.84C211.8 147.12 212.48 146.92 213.36 147.24C214.64 147.64 216.32 148.36 218.4 149.4C220.56 150.36 222.24 151.16 223.44 151.8C224.16 152.2 224.48 152.84 224.4 153.72C224.4 154.52 223.96 155.12 223.08 155.52C223 155.6 222.88 155.68 222.72 155.76C222.56 155.76 222.4 155.8 222.24 155.88C222.16 155.96 222.08 156 222 156C222 156 221.96 156.04 221.88 156.12H229.56C230.36 156.12 230.96 155.8 231.36 155.16C231.52 154.76 231.8 154.28 232.2 153.72C232.68 153.08 233.12 152.48 233.52 151.92C234 151.12 234.72 150.92 235.68 151.32C236.56 151.64 237.76 152.16 239.28 152.88C240.8 153.6 242.32 154.36 243.84 155.16C245.36 155.96 246.56 156.64 247.44 157.2C248.24 157.68 248.56 158.48 248.4 159.6C248.24 160.64 247.72 161.24 246.84 161.4C246.6 161.48 246.36 161.52 246.12 161.52C245.96 161.52 245.8 161.56 245.64 161.64C245 161.96 244.48 162.36 244.08 162.84C243.76 163.24 243.56 163.92 243.48 164.88C243.48 165.84 243.44 167.96 243.36 171.24C243.28 174.44 243.16 178.32 243 182.88C242.92 187.36 242.84 192 242.76 196.8C242.68 201.6 242.6 206.08 242.52 210.24C242.44 214.4 242.36 217.68 242.28 220.08L242.52 219.84C242.92 219.12 243.56 217.96 244.44 216.36C245.32 214.76 246.04 213.52 246.6 212.64C247.4 211.44 248.28 211.36 249.24 212.4C249.96 213.04 250.84 214 251.88 215.28C252.92 216.56 253.92 217.84 254.88 219.12C255.84 220.4 256.52 221.4 256.92 222.12C257.32 222.68 257.4 223.24 257.16 223.8C256.92 224.28 256.56 224.52 256.08 224.52H151.92C151.92 224.52 150.88 224.56 148.8 224.64C146.72 224.64 144.4 224.76 141.84 225ZM186 220.92H209.52V170.76H186V220.92ZM190.08 215.64C189.04 215.64 188.52 215.16 188.52 214.2V188.16C188.52 185.04 188.48 182.84 188.4 181.56C188.32 180.2 188.16 179.2 187.92 178.56C187.84 178.16 187.92 177.84 188.16 177.6C188.4 177.36 188.76 177.28 189.24 177.36C190.12 177.68 191.36 178.16 192.96 178.8C194.56 179.44 195.84 180 196.8 180.48H198.36C198.84 180.48 199.2 180.32 199.44 180L200.4 178.08C200.72 177.6 201.2 177.48 201.84 177.72C202.72 177.96 203.88 178.4 205.32 179.04C206.84 179.6 207.96 180.12 208.68 180.6C209.16 180.84 209.4 181.24 209.4 181.8C209.48 182.36 209.2 182.76 208.56 183C208.32 183.08 208.04 183.2 207.72 183.36C207.16 183.84 206.88 184.6 206.88 185.64V210.96C206.88 211.52 206.16 212 204.72 212.4C203.36 212.8 202 213 200.64 213C199.68 213 199.2 212.56 199.2 211.68V207.96H196.32V213.6C196.32 214.16 195.6 214.64 194.16 215.04C192.72 215.44 191.36 215.64 190.08 215.64ZM237.24 252.96C234.6 250.24 231.4 247.36 227.64 244.32C223.88 241.28 219.96 238.48 215.88 235.92C211.8 233.36 207.92 231.44 204.24 230.16C203.76 229.12 204 228.32 204.96 227.76C208.72 227.92 212.64 228.28 216.72 228.84C220.8 229.32 224.72 230.04 228.48 231C232.32 231.96 235.76 233.12 238.8 234.48C241.92 235.84 244.32 237.44 246 239.28C248.32 241.76 249.28 244.28 248.88 246.84C248.48 249.48 247.48 251.52 245.88 252.96C244.68 254.08 243.28 254.68 241.68 254.76C240.08 254.92 238.6 254.32 237.24 252.96ZM143.76 255.84C142.72 255.2 142.48 254.4 143.04 253.44C145.52 252.4 148.16 250.92 150.96 249C153.84 247.16 156.68 245.08 159.48 242.76C162.28 240.44 164.88 238.08 167.28 235.68C169.68 233.2 171.64 230.88 173.16 228.72C173.4 228.32 173.64 227.96 173.88 227.64C174.12 227.32 174.32 227 174.48 226.68C174.72 226.36 175.04 226.12 175.44 225.96C175.92 225.96 176.28 226 176.52 226.08C177.24 226.4 178.36 226.96 179.88 227.76C181.4 228.48 183.04 229.28 184.8 230.16C186.56 231.04 188.2 231.92 189.72 232.8C191.24 233.6 192.32 234.2 192.96 234.6C193.44 234.84 193.52 235.44 193.2 236.4C192.88 237.2 192.36 237.52 191.64 237.36C190.84 237.2 190.16 237.2 189.6 237.36C189.12 237.44 188.32 237.84 187.2 238.56C182.96 241.12 178.28 243.52 173.16 245.76C168.12 248 163.04 249.96 157.92 251.64C152.88 253.4 148.16 254.8 143.76 255.84ZM186 167.16H196.08C197.12 167.16 197.88 166.8 198.36 166.08C198.76 165.44 199.24 164.68 199.8 163.8C200.44 162.92 200.92 162.2 201.24 161.64C201.88 160.76 202.64 160.64 203.52 161.28C204.4 161.84 205.4 162.68 206.52 163.8C207.72 164.84 208.72 165.88 209.52 166.92V155.4H186V167.16ZM164.76 220.92H174.96V202.92H164.4C164.48 206.6 164.56 210.04 164.64 213.24C164.72 216.44 164.76 219 164.76 220.92ZM226.08 177.12H230.64L231 159.72H220.68V176.88C221.56 176.96 222.44 177.04 223.32 177.12C224.28 177.12 225.2 177.12 226.08 177.12ZM220.68 220.92H229.68L230.16 201.96L226.08 202.08C225.12 202.08 224.16 202.08 223.2 202.08C222.32 202.08 221.48 202.12 220.68 202.2V220.92ZM226.08 198.36H230.16L230.52 180.72H226.08C225.12 180.72 224.16 180.72 223.2 180.72C222.32 180.72 221.48 180.76 220.68 180.84V198.24C221.56 198.32 222.44 198.36 223.32 198.36C224.28 198.36 225.2 198.36 226.08 198.36ZM163.8 178.92C164.6 178.84 165.2 178.48 165.6 177.84C166 177.2 166.44 176.44 166.92 175.56C167.48 174.68 167.92 174 168.24 173.52C168.88 172.48 169.72 172.4 170.76 173.28C171.4 173.84 172.08 174.6 172.8 175.56C173.6 176.44 174.32 177.32 174.96 178.2V160.32C173.12 160.8 171.16 161.32 169.08 161.88C167.08 162.44 165.2 162.92 163.44 163.32L163.8 178.92ZM164.28 199.2C164.84 198.96 165.28 198.6 165.6 198.12C166 197.48 166.44 196.72 166.92 195.84C167.48 194.96 167.92 194.28 168.24 193.8C168.88 192.76 169.72 192.68 170.76 193.56C171.4 194.12 172.08 194.88 172.8 195.84C173.6 196.8 174.32 197.72 174.96 198.6V182.64H163.92L164.28 199.2ZM196.32 204.36H199.2V184.08H196.32V204.36Z" fill="#101010"/>
</g>
<defs>
<filter id="filter0_di_25_57" x="-2" y="-0.0800018" width="262.52" height="262.92" filterUnits="userSpaceOnUse" color-interpolation-filters="sRGB">
<feFlood flood-opacity="0" result="BackgroundImageFix"/>
<feColorMatrix in="SourceAlpha" type="matrix" values="0 0 0 0 0 0 0 0 0 0 0 0 0 0 0 0 0 0 127 0" result="hardAlpha"/>
<feOffset dx="-1" dy="3"/>
<feGaussianBlur stdDeviation="2"/>
<feComposite in2="hardAlpha" operator="out"/>
<feColorMatrix type="matrix" values="0 0 0 0 1 0 0 0 0 1 0 0 0 0 1 0 0 0 0.25 0"/>
<feBlend mode="normal" in2="BackgroundImageFix" result="effect1_dropShadow_25_57"/>
<feBlend mode="normal" in="SourceGraphic" in2="effect1_dropShadow_25_57" result="shape"/>
<feColorMatrix in="SourceAlpha" type="matrix" values="0 0 0 0 0 0 0 0 0 0 0 0 0 0 0 0 0 0 127 0" result="hardAlpha"/>
<feOffset dx="3" dy="-2"/>
<feGaussianBlur stdDeviation="2"/>
<feComposite in2="hardAlpha" operator="arithmetic" k2="-1" k3="1"/>
<feColorMatrix type="matrix" values="0 0 0 0 0.525 0 0 0 0 0.525 0 0 0 0 0.525 0 0 0 0.25 0"/>
<feBlend mode="normal" in2="shape" result="effect2_innerShadow_25_57"/>
</filter>
</defs>
</svg>
